<svg xmlns="http://www.w3.org/2000/svg" viewBox="0 0 512 512" width="512" height="512" role="img" aria-label="JEEV"><style>path{fill:#1A1D1F}@media(prefers-color-scheme:dark){path{fill:#F2F2F0}}</style><path fill="#1A1D1F" fill-rule="evenodd" d="M383.3 422.6C382.1 422.5 380.1 422.3 379 422.1C372.7 421.3 371.4 421.2 369.8 420.8C368.9 420.6 367.5 420.3 366.6 420.1C365.8 420 364.5 419.7 363.9 419.5C363.2 419.4 361.7 419 360.5 418.6C354.8 417.2 350.5 415.7 344.3 413C343 412.4 341 411.6 339.7 411C338.4 410.5 336.8 409.7 336.1 409.3C335.4 408.9 333.8 408.1 332.6 407.5C331.3 406.8 330 406.1 329.6 405.8C329.2 405.6 327.9 404.8 326.8 404.2C322.5 401.8 314.7 396.5 309.7 392.5C309 391.9 308 391.1 307.5 390.8C305.8 389.4 302.6 386.8 301.4 385.7C300.8 385.1 299.6 384 298.7 383.3C296.3 381.2 289.8 374.9 286.4 371.2C284 368.6 280.1 364.2 279.1 363C278.8 362.7 277.9 361.5 276.9 360.4C274.5 357.5 273 355.7 270.5 352.3C270.1 351.8 269.2 350.7 268.5 349.8C267.8 348.9 266.6 347.3 265.8 346.2C265.1 345.2 263.8 343.6 263.1 342.7C262.4 341.8 261.3 340.4 260.7 339.5C259.7 338 259.2 337.2 257 334.2C256.5 333.5 255.2 331.7 254.2 330.3C252.5 327.8 251.9 326.9 248.1 322C247.2 320.7 245.9 319 245.3 318C244.6 317.1 243.2 315.2 242.2 313.9C241.1 312.5 240 311 239.7 310.6C239 309.6 233.4 303.8 232.9 303.7C232.5 303.6 229.1 305.2 227.3 306.5C226.6 306.9 225.1 307.9 223.9 308.7C222.8 309.5 220.9 310.9 219.7 311.9C218.6 312.8 217.4 313.8 217 314.1C215.7 315.1 213.8 316.6 212.8 317.5C212.2 318.1 210.3 319.8 208.5 321.3C203 326 202.3 326.6 199.5 329.1C197.9 330.5 196.1 332.1 195.3 332.7C194.5 333.4 193.2 334.5 192.4 335.2C191.7 335.9 190.4 337 189.5 337.7C188.7 338.3 187.2 339.6 186.3 340.3C185.3 341.1 183.7 342.4 182.8 343.1C181.8 343.8 179.9 345.2 178.7 346.1C176 348.2 170.9 351.6 167.9 353.3C166.8 354 165.4 354.8 164.8 355.2C163.7 355.9 157.5 359 155.8 359.8C150.5 362.2 145 364.3 141.5 365.2C140.9 365.4 140.3 365.6 140.1 365.7C139.1 366 132 367.7 129.9 368.1C124.7 369 121.9 369.2 115.3 369.2C108.9 369.2 107.2 369.1 101.5 368.3C95.6 367.5 88 365.4 80.4 362.5C78 361.7 71.1 358.3 69.3 357.2C69 357 68.2 356.6 67.6 356.3C65.7 355.3 59.7 351.4 56.9 349.3C50.5 344.5 42.3 336.4 38.2 330.7C37.8 330.2 37.1 329.3 36.7 328.9C36.3 328.4 35.5 327.4 35.1 326.6C34.6 325.9 33.7 324.4 33 323.3C31.3 320.6 29.9 318.1 28.5 315.1C27.8 313.7 27.3 312.6 27.3 312.5C27.3 312.5 26.8 311.2 26.2 309.7C24.7 306 22.7 299.3 22.1 295.9C20.6 287.4 20.7 278.2 22.2 270.2C23.2 265.5 23.5 264 24.3 260.9C24.8 259.1 25.4 256.8 25.8 255.7C27.6 250.5 28.4 248.4 29.2 246.6C29.7 245.5 30.4 243.9 30.7 243.1C31.3 241.7 32.5 239.3 34.7 235.2C35.8 233.1 39.1 227.8 41.5 224.4C43.5 221.5 44.7 220.1 48.6 215.6C51 212.9 56.3 207.9 60.3 204.6C63.6 201.9 69.7 197.8 72.9 196C74.2 195.4 75.6 194.6 75.9 194.4C77.7 193.3 85.3 190.1 88.6 189.1C96.3 186.7 101.1 185.8 108.2 185.3C117.5 184.6 128.1 185.5 137.2 187.9C138.2 188.1 139.6 188.5 140.3 188.6C141.1 188.8 142.3 189.1 143.1 189.3L144.5 189.8L150.2 189.7C155.7 189.7 157.3 189.6 162.5 188.9C165.5 188.6 168.1 188.1 170.1 187.5C171.2 187.3 173.3 186.7 174.9 186.3C178.2 185.4 181.6 184.4 183.9 183.5C184.8 183.2 186.6 182.5 187.9 182C189.1 181.5 190.8 180.8 191.6 180.4C192.4 180 193.7 179.5 194.5 179.1C196.6 178.3 204.3 174.2 205.8 173.2C206.5 172.8 207.5 172.2 208 171.9C209.8 170.9 218.5 165 221 163.1C223.6 161.1 224.8 160.2 226.9 158.6C229 157 232.1 154.5 233.2 153.5C233.8 153 234.6 152.3 235.1 151.9C236.3 151 238.8 149 240.8 147.2C241.8 146.4 243.2 145.2 244.1 144.5C244.9 143.8 246.3 142.6 247.2 141.7C249.5 139.7 250 139.2 251.7 137.9C252.6 137.3 253.8 136.3 254.4 135.7C256 134.3 259.2 131.8 262.7 129.1C264.3 127.8 265.9 126.6 266.3 126.2C269.3 123.9 274.9 119.9 277.5 118.2C278.7 117.4 280.3 116.3 281.1 115.7C281.8 115.2 283.4 114.2 284.6 113.4C285.8 112.7 287.3 111.8 287.9 111.3C288.6 110.9 289.6 110.2 290.2 109.9C290.8 109.6 291.9 109 292.7 108.5C293.5 108.1 294.6 107.4 295.3 107C296.9 106.1 302.8 103 303 103C303 103 304.7 102.2 306.8 101.2C311.9 98.8 315.1 97.5 319.4 96.1C324.9 94.2 329 93 331.3 92.5C332 92.4 333.5 92 334.6 91.7C335.7 91.5 337.1 91.2 337.6 91.1C338.2 91 339.5 90.8 340.6 90.6C347.8 89.4 357.1 89 364.3 89.5C372.1 90.1 374.1 90.4 379.8 91.9C385.2 93.2 387.8 94.1 391.1 95.4C392.5 96 394.2 96.7 394.8 96.9C395.8 97.3 396.6 97.8 400.6 100.4C405 103.2 408.7 107.2 412.1 112.6C415.3 117.8 417.3 122.7 418.5 128.8C419.3 133.1 419.6 134.9 419.8 138.2C420.1 141.7 420.1 151.5 419.8 154.8C419.7 156.3 419.5 158.5 419.4 159.8C419.4 161.2 419.2 163.5 419 165C418.9 166.5 418.7 168.9 418.6 170.3C418.5 171.8 418.4 173.9 418.3 175C417.8 181 417.9 190.7 418.5 196.4C419 201.2 420.1 206.6 421.4 211.3C422.7 216 425.6 223.6 427.3 226.6C427.7 227.3 428.6 228.9 429.1 230C430.8 233.2 434.6 239.1 436.4 241.2C436.7 241.6 437.8 242.9 438.6 244.1C439.5 245.2 440.8 246.8 441.5 247.5C442.2 248.2 443.6 249.8 444.6 250.9C445.6 252.1 450.3 256.9 455 261.6C459.7 266.3 464.1 270.8 464.7 271.5C465.3 272.2 466.5 273.7 467.5 274.7C468.5 275.7 469.7 277.1 470.3 277.8C473.8 282.6 474.7 283.8 476.8 287C478 288.8 479.4 291 479.8 291.9C480.2 292.8 481 294.4 481.6 295.4C482.2 296.4 483.1 298.2 483.6 299.5C484.1 300.7 484.6 302 484.8 302.4C485.1 303 486.8 307.8 487.6 310.4C488.2 312.6 489.5 318.1 489.9 320.2C490 321.5 490.3 323.3 490.5 324.1C490.9 327.2 491.1 330 491 335.3C490.9 340 490.8 340.9 490.4 344.1C488.7 355.3 485.9 363.5 480.4 373.4C478.8 376.3 475 382.1 474.1 383.2C473.8 383.5 473 384.5 472.3 385.4C471.6 386.4 470.5 387.7 469.8 388.4C467 391.4 462.5 395.9 461.2 396.9C460.5 397.5 459.4 398.4 458.7 399C457.3 400.2 453.5 403 451.6 404.3C448.5 406.2 447.5 406.8 445.9 407.9C443.7 409.2 437.4 412.4 434.4 413.6C433.1 414.1 431.6 414.7 431.1 415C430.6 415.2 429.3 415.7 428.2 416.1C427.1 416.4 425.7 417 425 417.2C423.5 417.7 416.2 419.7 413.7 420.2C412.8 420.4 411.2 420.7 410.1 421C408.3 421.3 405.8 421.7 400.4 422.3C397.8 422.6 386.8 422.8 383.3 422.6ZM166.3 321.2C168.5 320.9 170.9 320.5 171.7 320.3C172.4 320.1 173.9 319.8 175 319.5C178.1 318.9 182.4 317.6 185.3 316.5C186.1 316.1 187.8 315.5 188.9 315.1C191.3 314.1 197.1 311.4 198.7 310.5C199.3 310.1 201 309.1 202.3 308.4C203.6 307.7 205.3 306.7 206 306.1C206.8 305.6 207.8 304.9 208.3 304.6C209.2 304 211.9 302 214.3 300.1C216.2 298.5 218.5 296.4 220.2 294.5L221.9 292.8L219.7 290.6C218.5 289.4 217 288 216.3 287.4C215.6 286.8 214.2 285.5 213.1 284.5C212.1 283.5 210.4 282 209.5 281.3C208.5 280.5 207 279.2 206 278.4C204.4 276.8 202.8 275.5 200.8 274C200.2 273.6 199.1 272.7 198.3 272C196.9 270.8 192.8 267.6 189.2 265.1C188 264.2 186.5 263.1 185.9 262.6C185.3 262.1 183.8 261.1 182.7 260.4C181.5 259.7 179.9 258.6 179.1 258C177.4 256.7 174.9 255.2 169.7 252.1C167.5 250.8 165.2 249.4 164.6 249C163.5 248.2 161 246.9 159.9 246.5C159.5 246.3 158.8 246 158.3 245.7C157.8 245.4 155.9 244.4 154.2 243.5C152.4 242.6 150.8 241.7 150.5 241.6C150.2 241.4 148.9 240.8 147.6 240.3C146.3 239.8 143.9 238.8 142.5 238.2C137.8 236.2 130.7 233.7 127.6 233C126.5 232.7 124.7 232.2 123.6 231.9C121.5 231.2 112.9 229.4 109.8 229C105.4 228.3 99.4 227.7 97.5 227.7C96.5 227.7 96.4 227.7 93.7 229.5C87.3 233.7 82.5 239.5 79 247C75.9 253.8 75.1 262.1 77 270.2C78 275.1 79.5 278.7 82.7 284.6C83.8 286.6 86 289.7 88.6 292.8C90.1 294.6 96.3 300.6 98.2 302.1C103.9 306.6 107.2 308.8 114.4 312.4C115.9 313.2 117.6 314.1 118.1 314.3C118.6 314.6 119.9 315.1 121.1 315.5C122.2 315.9 123.8 316.5 124.6 316.8C127.7 318 131.3 319.1 134 319.6C135.3 319.9 137 320.3 137.7 320.5C139.7 320.9 144.8 321.7 147 321.8C148 321.9 151.8 321.9 155.5 321.9C162.2 321.8 162.2 321.8 166.3 321.2ZM303.1 294.9C308.1 294.7 315.4 293.5 321.6 292C322.9 291.7 324.6 291.3 325.4 291.1C326.1 290.9 328.3 290.2 330.2 289.6C332.1 289 334.7 288.2 335.9 287.8C337.1 287.4 338.8 286.8 339.6 286.5C340.3 286.2 341.7 285.7 342.5 285.4C347.2 283.6 348.8 282.9 349.8 282.4C350.5 282.1 351.7 281.5 352.6 281.2C353.4 280.9 354.8 280.2 355.6 279.8C356.4 279.4 359.2 278.1 361.8 276.8C364.5 275.4 367.5 273.9 368.5 273.3C369.5 272.8 371.4 271.7 372.7 271C374 270.3 376 269.1 377.1 268.4C378.3 267.7 379.3 267.1 379.3 267.1C379.5 267.1 384.3 264 385.6 263.1C386.2 262.7 387.3 261.9 388 261.4C391.6 258.9 396.6 254.6 396.6 254C396.6 253.9 396.3 253.4 395.8 252.9C395.4 252.4 394.4 251.2 393.6 250.3C392.8 249.4 391.9 248.3 391.5 247.8C391 247.4 389.9 246 388.9 244.8C387.8 243.6 386.2 241.8 385.2 240.7C384.2 239.7 382.3 237.7 381.1 236.4C380 235.1 378.8 233.8 378.5 233.6C378 233.1 375.5 230.3 374.5 229C374.2 228.5 373.3 227.6 372.7 226.9C371.5 225.7 370.9 224.9 369 222.3C368.5 221.6 367.7 220.6 367.3 220.2C365.8 218.6 361 211.3 359.5 208.3C359.2 207.7 358.5 206.4 358 205.6C357.5 204.7 356.8 203.2 356.4 202.2C356 201.2 355.5 200 355.2 199.4C354.5 197.9 352.6 192.9 351.2 189.1C350.4 187 349.9 185.3 349 182.2C348.7 181.1 348.2 179.6 347.9 178.9C347.7 178.1 346.9 175.9 346.3 174.1C345.7 172.2 344.9 169.8 344.5 168.8C344 167.8 343.2 165.6 342.5 163.9C341.1 160.4 340.8 159.8 339.3 157.4C337.5 154.4 335.8 152.3 334.1 150.6C332.4 149.1 329.8 147.3 329.2 147.3C329 147.3 328.7 147.8 328.1 148.9C327.7 149.7 327.1 150.9 326.8 151.5C325.5 153.9 322.6 160 322 161.7C321.7 162.6 321.1 164 320.7 164.8C320.3 165.5 319.6 167 319.2 168.2C318.7 169.3 318 170.9 317.7 171.7C317.1 173 314.3 179.8 311.6 186.6C311 188 310.3 189.7 310 190.4C307.8 196.1 306.3 200 305 203.6C304.8 204.3 304.3 205.3 304 206C303.7 206.6 303.3 207.7 303 208.5C301.8 211.8 300.8 214.6 300.2 216.6C299.8 217.7 299.4 218.9 299.2 219.2C299 219.6 298.5 221 298 222.4C297.6 223.8 296.8 225.9 296.4 227.1C295.6 229.1 291.9 240.2 291.1 242.9C290.9 243.7 290.3 245.6 289.8 247.1C289.3 248.6 288.6 251.1 288.2 252.5C286.8 258 286.5 259 286 260.5C285.7 261.3 285.3 262.8 285.1 263.9C284.9 265 284.6 266.4 284.4 267C284 268.4 282.9 273.4 282.1 277.6C281.4 281.5 280.9 284.5 280.6 288.4C280.5 290 280.3 291.5 280.3 291.7C280.2 292.2 280.4 292.4 281.5 293.1C282.2 293.5 282.8 293.7 284.3 294C286.1 294.4 290 294.9 292.1 295C294.1 295.1 300.4 295.1 303.1 294.9Z"/></svg>